<svg id="visual" viewBox="0 0 960 540" width="960" height="540" xmlns="http://www.w3.org/2000/svg" xmlns:xlink="http://www.w3.org/1999/xlink" version="1.1"><g fill="#fbbee0"><circle r="54" cx="136" cy="167"></circle><circle r="4" cx="600" cy="481"></circle><circle r="30" cx="436" cy="133"></circle><circle r="25" cx="551" cy="233"></circle><circle r="13" cx="729" cy="357"></circle><circle r="13" cx="898" cy="263"></circle><circle r="13" cx="317" cy="444"></circle><circle r="45" cx="253" cy="325"></circle><circle r="37" cx="625" cy="320"></circle><circle r="7" cx="106" cy="280"></circle><circle r="24" cx="167" cy="55"></circle><circle r="18" cx="603" cy="91"></circle><circle r="32" cx="514" cy="402"></circle><circle r="16" cx="825" cy="115"></circle><circle r="46" cx="289" cy="128"></circle><circle r="29" cx="795" cy="452"></circle><circle r="33" cx="395" cy="365"></circle><circle r="41" cx="208" cy="463"></circle><circle r="44" cx="724" cy="75"></circle><circle r="8" cx="698" cy="241"></circle><circle r="41" cx="105" cy="430"></circle></g></svg>